<svg width="24" height="24" viewBox="0 0 24 24" fill="none" xmlns="http://www.w3.org/2000/svg">
<path d="M15.75 21C15.75 21.1989 15.671 21.3897 15.5303 21.5303C15.3897 21.671 15.1989 21.75 15 21.75H9C8.80109 21.75 8.61032 21.671 8.46967 21.5303C8.32902 21.3897 8.25 21.1989 8.25 21C8.25 20.8011 8.32902 20.6103 8.46967 20.4697C8.61032 20.329 8.80109 20.25 9 20.25H15C15.1989 20.25 15.3897 20.329 15.5303 20.4697C15.671 20.6103 15.75 20.8011 15.75 21ZM21.75 6V16.5C21.75 17.0967 21.5129 17.669 21.091 18.091C20.669 18.5129 20.0967 18.75 19.5 18.75H4.5C3.90326 18.75 3.33097 18.5129 2.90901 18.091C2.48705 17.669 2.25 17.0967 2.25 16.5V6C2.25 5.40326 2.48705 4.83097 2.90901 4.40901C3.33097 3.98705 3.90326 3.75 4.5 3.75H19.5C20.0967 3.75 20.669 3.98705 21.091 4.40901C21.5129 4.83097 21.75 5.40326 21.75 6ZM15.375 11.25C15.375 11.1295 15.3459 11.0108 15.2902 10.9039C15.2346 10.797 15.154 10.7051 15.0553 10.6359L11.3053 8.01094C11.1929 7.93222 11.0611 7.88583 10.9242 7.87683C10.7873 7.86782 10.6506 7.89654 10.5289 7.95987C10.4071 8.02319 10.3051 8.11869 10.2339 8.23596C10.1627 8.35324 10.125 8.4878 10.125 8.625V13.875C10.125 14.0122 10.1627 14.1468 10.2339 14.264C10.3051 14.3813 10.4071 14.4768 10.5289 14.5401C10.6506 14.6035 10.7873 14.6322 10.9242 14.6232C11.0611 14.6142 11.1929 14.5678 11.3053 14.4891L15.0553 11.8641C15.154 11.7949 15.2346 11.703 15.2902 11.5961C15.3459 11.4892 15.375 11.3705 15.375 11.25Z" fill="black"/>
</svg>
