<svg width="512" height="512" viewBox="0 0 512 512" fill="none" xmlns="http://www.w3.org/2000/svg">
<path d="M460.125 251.8C441.778 244.992 428.749 244.503 428.749 244.503C428.749 244.503 420.075 209.279 391.564 209.279C363.148 209.279 339.484 244.503 307.615 238.28C275.843 231.963 246.354 192.403 232.833 149.996C219.313 107.475 99.9553 83.5113 45.9876 79.0606C45.9876 79.0606 36.8049 77.3824 39.1804 87.7346C41.6505 97.9923 131.707 156.203 151.75 189.047C171.681 221.8 175.037 254.344 213.596 286.609C213.596 286.609 173.941 325.076 145.523 331.392C117.013 337.615 93.8383 347.759 98.2692 355.471C102.606 363.259 131.022 350.135 165.246 355.471C199.583 360.808 301.879 363.259 337.103 341.951C372.326 320.738 405.079 264.813 439.395 268.656C457.648 270.73 465.737 274.369 469.376 277.443C470.753 278.631 473.034 277.744 473.129 275.859C473.619 268.354 472.337 256.23 460.099 251.779L460.125 251.8ZM393.641 241.353C389.888 241.353 386.928 238.299 386.928 234.546C386.928 230.793 389.888 227.833 393.641 227.833C397.393 227.833 400.448 230.794 400.448 234.546C400.448 238.298 397.393 241.353 393.641 241.353Z" fill="white" style="fill:white;fill-opacity:1;"/>
<path d="M244.901 395.731C247.56 390.829 256.969 381.891 260.344 379.647C263.719 377.403 275.618 370.634 263.248 369.521C250.86 368.39 240.564 384.153 232.852 382.381C225.14 380.609 227.874 365.977 227.874 365.977C209.452 363.808 209.772 381.024 208.811 394.845C207.849 408.686 221.991 410.609 226.667 412.212C231.325 413.815 245.165 430.069 249.672 442.137C254.178 454.205 265.266 452.753 266.717 446.002C268.169 439.252 254.178 432.011 246.617 417.378C239.055 402.746 243.241 398.862 244.919 395.75L244.901 395.731Z" fill="white" style="fill:white;fill-opacity:1;"/>
<path d="M253.14 394.771C253.14 394.771 246.748 399.956 246.993 405.273C247.239 410.572 255.799 416.003 259.42 422.169C263.04 428.315 261.72 431.578 264.85 431.936C267.98 432.294 270.752 420.377 266.773 412.344C262.795 404.311 253.141 394.789 253.141 394.789L253.14 394.771Z" fill="white" style="fill:white;fill-opacity:1;"/>
<path d="M306.375 218.994C320.894 223.105 336.035 214.129 341.259 199.968C352.573 169.308 374.653 157.655 370.618 128.164C367.487 105.235 360.002 61.0909 352.516 61.0909C347.255 61.0909 339.995 76.3834 332.604 92.9391C326.72 106.101 319.97 118.791 312.296 131.01C299.493 151.374 279.995 182.356 278.864 183.901C273.15 191.839 285.576 213.128 306.356 218.992L306.375 218.994Z" fill="white" style="fill:white;fill-opacity:1;"/>
</svg>
