<svg xmlns="http://www.w3.org/2000/svg" width="150" height="150" viewBox="0 0 150 150">
  <rect width="150" height="150" fill="#f0f0f0" rx="8"/>
  <rect x="20" y="20" width="30" height="30" fill="#333"/>
  <rect x="100" y="20" width="30" height="30" fill="#333"/>
  <rect x="20" y="100" width="30" height="30" fill="#333"/>
  <rect x="25" y="25" width="20" height="20" fill="#f0f0f0"/>
  <rect x="105" y="25" width="20" height="20" fill="#f0f0f0"/>
  <rect x="25" y="105" width="20" height="20" fill="#f0f0f0"/>
  <rect x="30" y="30" width="10" height="10" fill="#333"/>
  <rect x="110" y="30" width="10" height="10" fill="#333"/>
  <rect x="30" y="110" width="10" height="10" fill="#333"/>
  <rect x="60" y="20" width="10" height="10" fill="#333"/>
  <rect x="80" y="20" width="10" height="10" fill="#333"/>
  <rect x="60" y="40" width="10" height="10" fill="#333"/>
  <rect x="20" y="60" width="10" height="10" fill="#333"/>
  <rect x="40" y="60" width="10" height="10" fill="#333"/>
  <rect x="60" y="60" width="30" height="30" fill="#333"/>
  <rect x="65" y="65" width="20" height="20" fill="#f0f0f0"/>
  <rect x="70" y="70" width="10" height="10" fill="#333"/>
  <rect x="100" y="60" width="10" height="10" fill="#333"/>
  <rect x="120" y="60" width="10" height="10" fill="#333"/>
  <rect x="60" y="100" width="10" height="10" fill="#333"/>
  <rect x="80" y="100" width="10" height="10" fill="#333"/>
  <rect x="100" y="100" width="30" height="30" fill="#999"/>
  <rect x="60" y="120" width="10" height="10" fill="#333"/>
  <rect x="80" y="120" width="10" height="10" fill="#333"/>
</svg>