<svg width="30" height="30" viewBox="0 0 30 30" fill="none" xmlns="http://www.w3.org/2000/svg">
<path d="M25.9758 15.6633L17.5383 24.1008C17.3624 24.2767 17.1238 24.3756 16.875 24.3756C16.6262 24.3756 16.3876 24.2767 16.2117 24.1008C16.0358 23.9249 15.937 23.6863 15.937 23.4375C15.937 23.1888 16.0358 22.9502 16.2117 22.7743L23.0496 15.9375L4.6875 15.9375C4.43886 15.9375 4.2004 15.8388 4.02459 15.6629C3.84877 15.4871 3.75 15.2487 3.75 15C3.75 14.7514 3.84877 14.5129 4.02459 14.3371C4.2004 14.1613 4.43886 14.0625 4.6875 14.0625L23.0496 14.0625L16.2117 7.22581C16.0358 7.0499 15.937 6.81131 15.937 6.56253C15.937 6.31375 16.0358 6.07516 16.2117 5.89925C16.3876 5.72334 16.6262 5.62451 16.875 5.62451C17.1238 5.62451 17.3624 5.72334 17.5383 5.89925L25.9758 14.3368C26.0629 14.4238 26.1321 14.5272 26.1793 14.641C26.2265 14.7548 26.2507 14.8768 26.2507 15C26.2507 15.1232 26.2265 15.2452 26.1793 15.359C26.1321 15.4729 26.0629 15.5762 25.9758 15.6633Z" fill="#191717"/>
</svg>
