<svg width="30" height="30" viewBox="0 0 30 30" fill="none" xmlns="http://www.w3.org/2000/svg">
<path d="M26.2498 15C26.2498 15.2487 26.151 15.4871 25.9752 15.6629C25.7994 15.8388 25.5609 15.9375 25.3123 15.9375L6.95015 15.9375L13.788 22.7743C13.8751 22.8614 13.9442 22.9648 13.9914 23.0786C14.0385 23.1924 14.0628 23.3144 14.0628 23.4375C14.0628 23.5607 14.0385 23.6827 13.9914 23.7965C13.9442 23.9103 13.8751 24.0137 13.788 24.1008C13.7009 24.1879 13.5975 24.257 13.4837 24.3042C13.3699 24.3513 13.2479 24.3756 13.1248 24.3756C13.0016 24.3756 12.8796 24.3513 12.7658 24.3042C12.652 24.257 12.5486 24.1879 12.4615 24.1008L4.02398 15.6633C3.93681 15.5762 3.86767 15.4729 3.82049 15.359C3.77331 15.2452 3.74902 15.1232 3.74902 15C3.74902 14.8768 3.77331 14.7548 3.82049 14.641C3.86767 14.5272 3.93681 14.4238 4.02398 14.3368L12.4615 5.89925C12.6374 5.72334 12.876 5.62451 13.1248 5.62451C13.3735 5.62451 13.6121 5.72334 13.788 5.89925C13.964 6.07516 14.0628 6.31375 14.0628 6.56253C14.0628 6.81131 13.964 7.0499 13.788 7.22581L6.95015 14.0625L25.3123 14.0625C25.5609 14.0625 25.7994 14.1613 25.9752 14.3371C26.151 14.5129 26.2498 14.7514 26.2498 15Z" fill="#191717"/>
</svg>
