<svg xmlns="http://www.w3.org/2000/svg" width="331" height="280" fill="none"><path d="M.904 39.266l28.72-12.826 13.613 29.794 19.192-8.552L48.818 17.89 77.584 5.062l37.069 81.776-28.766 12.826L72.774 70.68l-19.192 8.596 13.158 28.939-28.54 12.827L.904 39.266z" fill="#ffffff"/><path d="M194.947 45.651L155.593 96.58l-6.558 31.153-30.76-6.456 6.74-32.056-17.053-61.855 32.614 6.863 6.921 29.708 18.365-24.38 29.085 6.094zM197.402.696h40.888a43.628 43.628 0 0128.141 7.977 27.436 27.436 0 017.609 10.143 27.7 27.7 0 012.265 12.518 30.226 30.226 0 01-2.374 13.612 29.934 29.934 0 01-8.173 11.088c-7.002 5.756-17.101 8.657-30.386 8.657h-6.777v26.24h-31.418l.225-90.235zm44.388 26.105a13.362 13.362 0 00-8.123-2.084h-5.072v17.358h5.296c2.84.237 5.676-.514 8.034-2.13a8.298 8.298 0 002.031-2.992 8.369 8.369 0 00.572-3.58 7.58 7.58 0 00-.549-3.634 7.52 7.52 0 00-2.189-2.938z" fill="#ffffff"/><path d="M237.324 76.642l67.607-18.05 6.46 23.51-37.079 10.018 2.23 8.168 34.121-9.025 6.097 22.111-34.167 9.025 2.593 9.387 39.354-10.605 6.46 23.556-69.836 18.682-23.84-86.777zM18.747 221.205l10.059-89.011 43.678 5.217a50.171 50.171 0 0125.214 8.231 17.615 17.615 0 015.703 7.585 17.731 17.731 0 01.958 9.462 19.164 19.164 0 01-6.08 12.594 27.633 27.633 0 01-14.797 6.251 30.632 30.632 0 0115.557 9.311 18.979 18.979 0 013.507 6.891c.684 2.515.845 5.146.472 7.727a21.533 21.533 0 01-3.515 10.213 21.368 21.368 0 01-8.02 7.193 48.153 48.153 0 01-27.896 3.374l-44.84-5.038zm51.278-28.291a14.647 14.647 0 00-7.377-2.339l-8.94-1.034-1.476 12.863 9.165 1.08c2.539.482 5.162.217 7.555-.765a5.828 5.828 0 002.067-2.031 5.872 5.872 0 00.839-2.782 5.38 5.38 0 00-.256-2.741 5.35 5.35 0 00-1.577-2.251zm1.118-31.844a14.552 14.552 0 00-7.243-2.294l-6.75-.765-1.431 12.774 7.108.809c2.418.46 4.917.21 7.198-.719a5.654 5.654 0 002.002-2.021c.485-.835.75-1.78.77-2.747a5.34 5.34 0 00-.157-2.742 5.305 5.305 0 00-1.497-2.295z" fill="#ffffff"/><path d="M92.35 279.399l13.552-93.385 35.777-5.867 43.231 84.041-31.892 5.236-5.06-11.555-23.671 3.882-.677 12.547-31.26 5.101zm33.564-38.185l13.868-2.256-11.655-26.54-2.213 28.796zM238.582 116.581l5.433 89.695-29.702 1.759-30.79-44.058 2.762 45.772-27.167 1.623-5.433-89.695 30.336-1.849 30.292 43.111-2.717-44.735 26.986-1.623z" fill="#ffffff"/><path d="M279.707 251.987h-.317a24.608 24.608 0 01-14.032 6.814 27.219 27.219 0 01-15.933-3.294 32.123 32.123 0 01-11.75-9.131 32.003 32.003 0 01-6.357-13.432 48.932 48.932 0 015.794-32.492 51.447 51.447 0 0128.201-26.805 44.117 44.117 0 0136.212 3.339 40.178 40.178 0 0119.69 19.766 42.387 42.387 0 011.267 28.204l-29.377-8.529a17.328 17.328 0 001.132-10.018 9.317 9.317 0 00-5.07-5.957 11.435 11.435 0 00-11.769.632 39.655 39.655 0 00-11.024 13.345 39.512 39.512 0 00-4.275 16.755 13.53 13.53 0 002.73 6.279 13.576 13.576 0 005.463 4.145 12.841 12.841 0 008.51 1.534 8.562 8.562 0 003.544-1.735 8.528 8.528 0 002.385-3.138l-15.933-8.123 8.465-16.427 40.104 20.578-21.863 42.871-21.048-10.785 5.251-14.396z" fill="#ffffff"/></svg>