<svg xmlns="http://www.w3.org/2000/svg" viewBox="0 0 504.39 327.82">
  <path d="M170.61 327.82v-21.75h2.54v21.75h-2.54Zm139.49 0v-21.75h2.54v21.75h-2.54Zm-253.22-4.49c.68.55 1.49 1.03 2.43 1.45.94.41 1.96.62 3.04.62.83 0 1.52-.11 2.07-.32s.99-.49 1.32-.83c.33-.34.57-.73.72-1.16s.22-.89.22-1.35c0-.59-.09-1.11-.27-1.56-.18-.45-.45-.83-.79-1.16-.35-.33-.79-.61-1.32-.84-.53-.23-1.13-.46-1.81-.67-.78-.23-1.54-.5-2.26-.79-.72-.3-1.36-.67-1.92-1.11-.56-.45-1.01-1-1.35-1.65-.34-.66-.51-1.47-.51-2.45s.17-1.8.52-2.53.82-1.34 1.42-1.83 1.31-.86 2.14-1.11c.83-.25 1.73-.38 2.7-.38.78 0 1.63.1 2.53.3.9.2 1.67.49 2.31.88.34.21.62.44.86.68s.35.52.35.84c0 .25-.1.53-.3.83-.2.3-.45.59-.75.89-.17-.15-.4-.34-.7-.57-.3-.23-.66-.45-1.08-.65-.42-.2-.91-.38-1.45-.52-.54-.15-1.13-.22-1.77-.22-.74 0-1.36.09-1.86.27-.5.18-.9.41-1.21.7-.31.29-.53.63-.67 1.02s-.21.79-.21 1.19c0 .53.11.99.32 1.37s.52.72.92 1 .89.55 1.46.78c.57.23 1.23.47 1.97.7s1.45.51 2.11.84c.67.33 1.26.74 1.77 1.22s.92 1.07 1.22 1.73c.31.67.46 1.47.46 2.4 0 1.06-.17 1.99-.52 2.8a5.69 5.69 0 0 1-1.46 2.04c-.63.55-1.38.96-2.26 1.24-.88.28-1.85.41-2.91.41-1.17 0-2.25-.13-3.26-.38-1.01-.25-1.8-.59-2.37-1.02-.53-.36-.79-.75-.79-1.18 0-.23.1-.53.29-.89.19-.36.41-.7.67-1.02Zm31.79 4.01-2.13-5.72h-8.59l-2.07 5.72h-2.83l7.73-21.08c.15-.06.37-.13.67-.19.3-.06.59-.1.89-.1.4 0 .77.09 1.1.27.33.18.59.52.78 1.03l7.35 20.07h-2.89Zm-6.43-18.13-3.59 10.14h7.16l-3.56-10.14Zm14.01-3.18c.08 0 .17 0 .25-.03.08 0 .17 0 .25-.02.08-.01.18-.02.29-.02.19 0 .4.03.62.08s.43.15.64.29c.2.14.37.34.51.6.14.26.21.61.21 1.03v16.95h7.38c.68 0 1.17.16 1.46.49.3.33.44.73.44 1.19 0 .11 0 .2-.02.29-.01.08-.02.16-.02.22v.22H96.24v-21.31Zm19.53 21.31h-2.83v-21.31c.09 0 .17 0 .26-.03.09 0 .17 0 .26-.02.09-.01.18-.02.29-.02.19 0 .4.03.63.08s.44.15.66.29c.21.14.39.34.53.6.14.26.21.61.21 1.03v19.37Zm19.81-4.23v-17.08c.06 0 .14 0 .22-.03.06 0 .14 0 .24-.02.1-.01.2-.02.3-.02.19 0 .39.03.6.08.21.05.41.15.59.29s.33.34.45.6c.12.26.17.61.17 1.03v19.37h-2.58l-10.81-16.5v16.5h-2.58v-21.21c.13-.04.31-.08.54-.11.23-.03.47-.05.7-.05.47 0 .83.08 1.1.24.27.16.51.43.75.81l10.3 16.09Zm11.86-8.11h7.22v2.45h-7.22v7.51h8.08c.7 0 1.2.16 1.51.49.31.33.46.74.46 1.22 0 .08 0 .17-.02.24-.01.08-.02.14-.02.21v.22h-12.78v-21.28h12.28c.04.13.06.24.06.33v.33c0 .49-.14.9-.41 1.22-.28.33-.78.49-1.53.49h-7.63v6.55Zm43.49 0h7.22v2.45h-7.22v7.51h8.08c.7 0 1.2.16 1.51.49.31.33.46.74.46 1.22 0 .08 0 .17-.02.24-.01.08-.02.14-.02.21v.22h-12.78v-21.28h12.28c.04.13.06.24.06.33v.33c0 .49-.14.9-.41 1.22-.28.33-.78.49-1.53.49h-7.63v6.55Zm19.56-6.52h-6.74c-.02-.11-.04-.2-.06-.29-.02-.08-.03-.18-.03-.29v-.32c0-.4.16-.76.48-1.07.32-.31.81-.46 1.46-.46h14.63c0 .11.01.2.03.29 0 .08 0 .17.02.24.01.08.02.14.02.21 0 .47-.16.86-.48 1.19-.32.33-.81.49-1.46.49h-5.02v18.86h-2.83v-18.86Zm18.7 0h-6.74c-.02-.11-.04-.2-.06-.29-.02-.08-.03-.18-.03-.29v-.32c0-.4.16-.76.48-1.07.32-.31.81-.46 1.46-.46h14.63c0 .11.01.2.03.29 0 .08 0 .17.02.24.01.08.02.14.02.21 0 .47-.16.86-.48 1.19-.32.33-.81.49-1.46.49h-5.02v18.86h-2.83v-18.86Zm29.83 8.11c0 1.53-.17 2.97-.52 4.33-.35 1.36-.9 2.54-1.64 3.56-.74 1.02-1.7 1.83-2.88 2.43-1.18.6-2.59.91-4.25.91s-3.03-.31-4.18-.92a7.882 7.882 0 0 1-2.81-2.46c-.72-1.03-1.25-2.22-1.57-3.58s-.49-2.77-.49-4.23.18-2.86.54-4.18c.36-1.32.92-2.49 1.69-3.5a8.131 8.131 0 0 1 2.91-2.4c1.18-.59 2.58-.89 4.21-.89s2.95.29 4.09.86 2.07 1.35 2.8 2.34c.73.99 1.27 2.15 1.61 3.48.34 1.34.51 2.76.51 4.26Zm-2.9.03c0-1.15-.11-2.23-.32-3.24a8.468 8.468 0 0 0-1.03-2.69c-.48-.77-1.11-1.38-1.91-1.83s-1.76-.67-2.91-.67c-1.21 0-2.22.22-3.02.67-.81.45-1.46 1.05-1.96 1.83-.5.77-.85 1.67-1.07 2.69s-.32 2.1-.32 3.24.11 2.24.32 3.29.56 1.98 1.05 2.8 1.13 1.46 1.92 1.94 1.79.72 2.97.72 2.15-.24 2.96-.72 1.45-1.12 1.94-1.94.84-1.75 1.05-2.8c.21-1.05.32-2.15.32-3.29Zm22.04-4.7c0 .89-.13 1.69-.38 2.39-.25.7-.59 1.31-1.02 1.81a5.8 5.8 0 0 1-1.48 1.27c-.56.34-1.16.58-1.8.73l5.82 9.22c-.21.11-.46.18-.73.22-.28.04-.53.06-.76.06-.98 0-1.73-.41-2.26-1.24l-4.96-7.76h-2.83v8.71H265v-21.21c.76-.11 1.58-.18 2.46-.22.88-.04 1.72-.06 2.53-.06 2.9 0 4.99.49 6.26 1.48s1.91 2.52 1.91 4.6Zm-2.89.15c0-.79-.12-1.44-.37-1.95-.24-.51-.59-.91-1.05-1.2-.46-.29-1.01-.49-1.65-.59-.65-.11-1.36-.16-2.15-.16-.51 0-.95.01-1.34.03-.38.02-.73.05-1.05.1h.06v8.01h2.29c.78 0 1.49-.07 2.13-.22.64-.15 1.19-.4 1.65-.74s.83-.78 1.08-1.31.38-1.19.38-1.96Zm11.67 2.93h7.22v2.45h-7.22v7.51h8.08c.7 0 1.2.16 1.51.49.31.33.46.74.46 1.22 0 .08 0 .17-.02.24-.01.08-.02.14-.02.21v.22h-12.78v-21.28h12.28c.04.13.06.24.06.33v.33c0 .49-.14.9-.41 1.22-.28.33-.78.49-1.53.49h-7.63v6.55Zm43.49 12.34h-2.83v-21.31c.09 0 .17 0 .26-.03.09 0 .17 0 .26-.02.09-.01.18-.02.29-.02.19 0 .4.03.63.08s.44.15.66.29c.21.14.39.34.53.6.14.26.21.61.21 1.03v19.37Zm19.81-4.23v-17.08c.06 0 .14 0 .22-.03.06 0 .14 0 .24-.02.1-.01.2-.02.3-.02.19 0 .39.03.6.08.21.05.41.15.59.29s.33.34.45.6c.12.26.17.61.17 1.03v19.37h-2.58l-10.81-16.5v16.5h-2.58v-21.21c.13-.04.31-.08.54-.11.23-.03.47-.05.7-.05.47 0 .83.08 1.1.24.27.16.51.43.75.81l10.3 16.09Zm11.86-8.3h7.22v2.42h-7.22v10.11h-2.77v-21.28h12.28c.04.13.06.24.06.33v.33c0 .49-.14.9-.41 1.22-.28.33-.79.49-1.56.49h-7.6v6.36Zm16.63.19h7.22v2.45h-7.22v7.51h8.08c.7 0 1.2.16 1.51.49.31.33.46.74.46 1.22 0 .08 0 .17-.02.24-.01.08-.02.14-.02.21v.22h-12.78v-21.28h12.28c.04.13.06.24.06.33v.33c0 .49-.14.9-.41 1.22-.28.33-.78.49-1.53.49h-7.63v6.55Zm28.15-3.08c0 .89-.13 1.69-.38 2.39-.25.7-.59 1.31-1.02 1.81a5.8 5.8 0 0 1-1.48 1.27c-.56.34-1.16.58-1.8.73l5.82 9.22c-.21.11-.46.18-.73.22-.28.04-.53.06-.76.06-.98 0-1.73-.41-2.26-1.24l-4.96-7.76h-2.83v8.71h-2.77v-21.21c.76-.11 1.58-.18 2.46-.22.88-.04 1.72-.06 2.53-.06 2.9 0 4.99.49 6.26 1.48s1.91 2.52 1.91 4.6Zm-2.9.15c0-.79-.12-1.44-.37-1.95-.24-.51-.59-.91-1.05-1.2-.46-.29-1.01-.49-1.65-.59-.65-.11-1.36-.16-2.15-.16-.51 0-.95.01-1.34.03-.38.02-.73.05-1.05.1h.06v8.01h2.29c.78 0 1.49-.07 2.13-.22.64-.15 1.19-.4 1.65-.74s.83-.78 1.08-1.31.38-1.19.38-1.96Zm8.24 11.26c.68.55 1.49 1.03 2.43 1.45.94.41 1.96.62 3.04.62.83 0 1.52-.11 2.07-.32s.99-.49 1.32-.83c.33-.34.57-.73.72-1.16s.22-.89.22-1.35c0-.59-.09-1.11-.27-1.56-.18-.45-.45-.83-.79-1.16-.35-.33-.79-.61-1.32-.84-.53-.23-1.13-.46-1.81-.67-.78-.23-1.54-.5-2.26-.79-.72-.3-1.36-.67-1.92-1.11-.56-.45-1.01-1-1.35-1.65-.34-.66-.51-1.47-.51-2.45s.17-1.8.52-2.53.82-1.34 1.42-1.83 1.31-.86 2.14-1.11c.83-.25 1.73-.38 2.7-.38.78 0 1.63.1 2.53.3.9.2 1.67.49 2.31.88.34.21.62.44.86.68s.35.52.35.84c0 .25-.1.53-.3.83-.2.3-.45.59-.75.89-.17-.15-.4-.34-.7-.57-.3-.23-.66-.45-1.08-.65-.42-.2-.91-.38-1.45-.52-.54-.15-1.13-.22-1.77-.22-.74 0-1.36.09-1.86.27-.5.18-.9.41-1.21.7-.31.29-.53.63-.67 1.02s-.21.79-.21 1.19c0 .53.11.99.32 1.37s.52.72.92 1 .89.55 1.46.78c.57.23 1.23.47 1.97.7s1.45.51 2.11.84c.67.33 1.26.74 1.77 1.22s.92 1.07 1.22 1.73c.31.67.46 1.47.46 2.4 0 1.06-.17 1.99-.52 2.8a5.69 5.69 0 0 1-1.46 2.04c-.63.55-1.38.96-2.26 1.24-.88.28-1.85.41-2.91.41-1.17 0-2.25-.13-3.26-.38-1.01-.25-1.8-.59-2.37-1.02-.53-.36-.79-.75-.79-1.18 0-.23.1-.53.29-.89.19-.36.41-.7.67-1.02Zm31.79 4.01-2.13-5.72h-8.59l-2.07 5.72h-2.83l7.73-21.08c.15-.06.37-.13.67-.19.3-.06.59-.1.89-.1.4 0 .77.09 1.1.27.33.18.59.52.78 1.03l7.35 20.07h-2.89Zm-6.43-18.13L434 319.35h7.16l-3.56-10.14Zm62.32-124.56-75.76-29.16 67.8-22.87c4.21-.22 7.27-4.09 6.51-8.23l-25.1-66.78c-.82-4.49-5.66-7-9.81-5.08l-66.86 52.68 28.78-84.59c1.39-4.1-1.24-8.47-5.51-9.15L348.56.09c-4.35-.69-8.25 2.76-8.08 7.16l3.76 99.26-74.82-73.3c-3.17-2.84-8.12-2.22-10.48 1.33l-31.53 59.62c-2.21 4.18-.33 9.35 4.04 11.14l85.82 37.4-68.35-1.93c-3.32-.09-6.1 2.06-7.04 4.99-.92-.86-1.89-1.63-2.96-2.25-2.55-1.49-5.39-2.48-8.51-2.98-3.12-.49-6.1-.74-8.93-.74-1.42 0-3.05.07-4.89.21-1.85.14-3.62.35-5.32.64h-.06c-3.48.5-6.11 3.39-6.11 6.91v113c-.14-.17-.25-.36-.4-.53-1.52-1.81-3.75-3.3-6.6-4.42-2.93-1.15-6.75-1.73-11.34-1.73h-35.6v-27.24h35.27c3.19 0 5.79-2.64 5.79-5.89v-18.37c0-3.25-2.6-5.89-5.79-5.89h-35.27v-24.85h29.55c4.31 0 7.91-.58 10.68-1.72 2.73-1.12 4.9-2.59 6.43-4.35 1.54-1.76 2.65-3.75 3.29-5.9.66-2.22.99-4.51.99-6.79s-.07-4.4-.21-6.04c-.27-3.07-2.72-5.36-5.71-5.36h-79.07c-3.19 0-5.79 2.64-5.79 5.89v81.92c-.69-2.73-1.63-5.22-2.84-7.4-2.82-5.07-6.47-9.32-10.85-12.6-4.43-3.32-9.43-6.04-14.85-8.07-5.53-2.07-10.9-3.94-15.98-5.57-5.68-1.82-10.21-3.72-13.46-5.63-3.68-2.16-5.55-5.15-5.55-8.88s1.67-6.38 4.97-8.32c3.03-1.78 7.28-2.68 12.66-2.68 2.25 0 4.92.27 7.95.81 1.88.34 2.99.77 4.16 1.24.82.33 1.68.66 2.96 1.04 2.95.88 5.24 1.97 7.9 3.22l1.19.56c1.21.57 2.41 1.18 3.55 1.8 2.59 1.41 5.89.71 7.53-1.62 1.94-2.76 3.48-5.19 4.56-7.22 1.65-3.11 2.49-6.06 2.49-8.76 0-3.07-.09-5.05-1.32-6.63-1.51-1.93-3.76-3.84-6.69-5.68-2.98-1.86-8.22-3.95-15.57-6.21-6.83-2.1-13.32-3.4-24.52-3.4-7.58 0-15.01.93-22.06 2.75-7 1.81-13.25 4.64-18.57 8.39-5.29 3.73-9.59 8.49-12.79 14.15-3.18 5.62-4.79 12.4-4.79 20.15s1.27 14.06 3.79 19.1c2.52 5.07 5.83 9.31 9.82 12.58 4.05 3.32 8.62 6.07 13.58 8.17 5.07 2.14 10.03 3.97 14.74 5.43 3.23 1.04 6.34 2.1 9.26 3.16 2.97 1.08 5.57 2.34 7.75 3.74 2.24 1.44 4.07 3.12 5.43 5 1.44 1.99 2.17 4.31 2.17 6.88 0 6.35-3.02 13.91-17.39 13.91-7.46 0-14.63-1.4-21.3-4.15-4.69-1.93-9.27-4.2-13.62-6.73-2.38-1.39-5.49-.8-7.07 1.35a97.492 97.492 0 0 0-4.84 7.21C1.25 264.42 0 268.13 0 271.4c0 2.39.63 4.68 1.87 6.8 1.04 1.78 2.59 3.38 4.62 4.75h86.07c1.3-.88 2.42-1.7 3.4-2.5 5.29-4.3 9.44-9.76 12.35-16.22 1.3-2.88 2.29-6.01 3.02-9.35v28.07h136.53V179.6l8.81 43.16c.69 4.6 5.5 7.35 9.81 5.61l63.69-28.47-36.13 82.9 95.2.14.17-64.13 71.3 57.84c3.66 2.88 9.05 1.45 10.8-2.87l32.37-80.01c1.46-3.62-.32-7.74-3.97-9.14Z"/>
  <style>
        path { fill: #fff; stroke-width:0 }
        @media (prefers-color-scheme: dark) {
            path { fill: #FFF; stroke-width:0; }
        }
    </style>
</svg>
