<svg width="57" height="57" viewBox="0 0 57 57" fill="none" xmlns="http://www.w3.org/2000/svg">
<path d="M49.2319 49.5902H40.2501L38.8719 39.9389L39.5807 40.3567C39.9768 40.5901 40.415 40.7431 40.8703 40.8071C41.3256 40.871 41.789 40.8446 42.234 40.7295C42.6791 40.6143 43.0971 40.4125 43.4642 40.1358C43.8313 39.859 44.1403 39.5126 44.3735 39.1164L46.9985 34.667C47.2318 34.2709 47.3849 33.8327 47.4488 33.3774C47.5128 32.9222 47.4864 32.4588 47.3712 32.0137C47.2561 31.5686 47.0543 31.1506 46.7775 30.7835C46.5008 30.4164 46.1544 30.1074 45.7582 29.8742L38.1019 25.3658L47.0029 10.2436C47.2362 9.84749 47.3892 9.40928 47.4532 8.95401C47.5172 8.49874 47.4908 8.03533 47.3756 7.59025C47.2604 7.14517 47.0587 6.72715 46.7819 6.36005C46.5051 5.99296 46.1588 5.68399 45.7626 5.45079L41.3132 2.82579C40.9171 2.59244 40.4789 2.43942 40.0236 2.37546C39.5683 2.31151 39.1049 2.33787 38.6598 2.45305C38.2148 2.56823 37.7967 2.76997 37.4296 3.04674C37.0625 3.32351 36.7536 3.6699 36.5204 4.0661L32.0119 11.7224L16.8832 2.82579C16.4871 2.59244 16.0489 2.43942 15.5936 2.37546C15.1383 2.31151 14.6749 2.33787 14.2298 2.45305C13.7848 2.56823 13.3667 2.76997 12.9996 3.04674C12.6325 3.32351 12.3236 3.6699 12.0904 4.0661L9.46537 8.51329C9.23168 8.9095 9.07838 9.34789 9.01424 9.80338C8.95011 10.2589 8.97639 10.7226 9.09158 11.1679C9.20677 11.6132 9.40862 12.0315 9.68558 12.3988C9.96254 12.766 10.3092 13.0751 10.7057 13.3083L18.3619 17.8167L9.46537 32.9389C9.23202 33.335 9.079 33.7732 9.01504 34.2285C8.95109 34.6838 8.97745 35.1472 9.09263 35.5923C9.20781 36.0373 9.40955 36.4554 9.68632 36.8225C9.96309 37.1896 10.3095 37.4985 10.7057 37.7317L15.1551 40.3567C15.8499 40.7732 16.6705 40.9283 17.4694 40.7942L16.2138 49.5902H7.23193C6.7678 49.5902 6.32269 49.7745 5.9945 50.1027C5.66631 50.4309 5.48193 50.876 5.48193 51.3402C5.48193 51.8043 5.66631 52.2494 5.9945 52.5776C6.32269 52.9058 6.7678 53.0902 7.23193 53.0902H49.2319C49.6961 53.0902 50.1412 52.9058 50.4694 52.5776C50.7976 52.2494 50.9819 51.8043 50.9819 51.3402C50.9819 50.876 50.7976 50.4309 50.4694 50.1027C50.1412 49.7745 49.6961 49.5902 49.2319 49.5902ZM43.9819 32.8908L41.3569 37.3402L26.2347 28.4392L28.8597 23.9877L43.9819 32.8908ZM39.5326 5.84016L43.9819 8.46517L35.081 23.5895L30.6382 20.9711L39.5326 5.84016ZM12.4819 10.2917L15.1069 5.84016L30.2313 14.7433L27.6063 19.1949L12.4819 10.2917ZM16.9313 37.3402L12.4819 34.7152L21.3829 19.5908L25.8366 22.2158L16.9313 37.3402ZM19.7488 49.5902L21.6694 36.2027L24.4629 31.4558L35.0132 37.6683L36.7172 49.5902H19.7488Z" fill="white"/>
</svg>
