<svg width="56" height="56" viewBox="0 0 56 56" fill="none" xmlns="http://www.w3.org/2000/svg">
<path d="M52.5 28C52.5014 28.5942 52.3491 29.1786 52.0578 29.6965C51.7664 30.2144 51.3461 30.648 50.8375 30.9553L19.32 50.2359C18.7886 50.5613 18.18 50.7389 17.557 50.7505C16.9341 50.762 16.3193 50.607 15.7763 50.3016C15.2384 50.0008 14.7903 49.5622 14.4781 49.0309C14.1659 48.4996 14.0009 47.8947 14 47.2784V8.72156C14.0009 8.1053 14.1659 7.50041 14.4781 6.96909C14.7903 6.43776 15.2384 5.99917 15.7763 5.69843C16.3193 5.39294 16.9341 5.23796 17.557 5.2495C18.18 5.26104 18.7886 5.43867 19.32 5.76406L50.8375 25.0447C51.3461 25.352 51.7664 25.7856 52.0578 26.3035C52.3491 26.8214 52.5014 27.4058 52.5 28Z" fill="white"/>
</svg>
