<svg width="50" height="63" viewBox="0 0 50 63" fill="none" xmlns="http://www.w3.org/2000/svg">
<rect width="50" height="50" rx="25" fill="white"/>
<g filter="url(#filter0_dddd_4_1366)">
<g clip-path="url(#clip0_4_1366)">
<path d="M8.3335 8.33325H41.6668V41.6666H8.3335V8.33325Z" fill="#012169"/>
<path d="M41.6668 8.33325V12.4999L29.297 24.9999L41.6668 37.1744V41.6666H37.3048L24.87 29.427L12.7606 41.6666H8.3335V37.2395L20.4429 25.065L8.3335 13.151V8.33325H12.37L24.87 20.5728L36.9793 8.33325H41.6668Z" fill="#F1F5F9"/>
<path d="M20.3127 29.427L21.0288 31.6405L11.0679 41.6666H8.3335V41.4713L20.3127 29.427ZM28.3856 28.6458L31.9012 29.1666L41.6668 38.7369V41.6666L28.3856 28.6458ZM41.6668 8.33325L29.1668 21.0937L28.9064 18.2291L38.672 8.33325H41.6668ZM8.3335 8.39836L20.8986 20.703L17.0575 20.1822L8.3335 11.5234V8.39836Z" fill="#C8102E"/>
<path d="M19.7918 8.33325V41.6666H30.2085V8.33325H19.7918ZM8.3335 19.7916V30.2083H41.6668V19.7916H8.3335Z" fill="#F1F5F9"/>
<path d="M8.3335 21.8749V28.1249H41.6668V21.8749H8.3335ZM21.8752 8.33325V41.6666H28.1252V8.33325H21.8752Z" fill="#C8102E"/>
</g>
</g>
<defs>
<filter id="filter0_dddd_4_1366" x="2.50016" y="7.49992" width="45.0002" height="54.9999" filterUnits="userSpaceOnUse" color-interpolation-filters="sRGB">
<feFlood flood-opacity="0" result="BackgroundImageFix"/>
<feColorMatrix in="SourceAlpha" type="matrix" values="0 0 0 0 0 0 0 0 0 0 0 0 0 0 0 0 0 0 127 0" result="hardAlpha"/>
<feOffset dy="0.833333"/>
<feGaussianBlur stdDeviation="0.833333"/>
<feColorMatrix type="matrix" values="0 0 0 0 0 0 0 0 0 0 0 0 0 0 0 0 0 0 0.1 0"/>
<feBlend mode="normal" in2="BackgroundImageFix" result="effect1_dropShadow_4_1366"/>
<feColorMatrix in="SourceAlpha" type="matrix" values="0 0 0 0 0 0 0 0 0 0 0 0 0 0 0 0 0 0 127 0" result="hardAlpha"/>
<feOffset dy="3.33333"/>
<feGaussianBlur stdDeviation="1.66667"/>
<feColorMatrix type="matrix" values="0 0 0 0 0 0 0 0 0 0 0 0 0 0 0 0 0 0 0.09 0"/>
<feBlend mode="normal" in2="effect1_dropShadow_4_1366" result="effect2_dropShadow_4_1366"/>
<feColorMatrix in="SourceAlpha" type="matrix" values="0 0 0 0 0 0 0 0 0 0 0 0 0 0 0 0 0 0 127 0" result="hardAlpha"/>
<feOffset dy="8.33333"/>
<feGaussianBlur stdDeviation="2.5"/>
<feColorMatrix type="matrix" values="0 0 0 0 0 0 0 0 0 0 0 0 0 0 0 0 0 0 0.05 0"/>
<feBlend mode="normal" in2="effect2_dropShadow_4_1366" result="effect3_dropShadow_4_1366"/>
<feColorMatrix in="SourceAlpha" type="matrix" values="0 0 0 0 0 0 0 0 0 0 0 0 0 0 0 0 0 0 127 0" result="hardAlpha"/>
<feOffset dy="15"/>
<feGaussianBlur stdDeviation="2.91667"/>
<feColorMatrix type="matrix" values="0 0 0 0 0 0 0 0 0 0 0 0 0 0 0 0 0 0 0.01 0"/>
<feBlend mode="normal" in2="effect3_dropShadow_4_1366" result="effect4_dropShadow_4_1366"/>
<feBlend mode="normal" in="SourceGraphic" in2="effect4_dropShadow_4_1366" result="shape"/>
</filter>
<clipPath id="clip0_4_1366">
<rect x="8.3335" y="8.33325" width="33.3333" height="33.3333" rx="16.6667" fill="white"/>
</clipPath>
</defs>
</svg>
